<svg xmlns="http://www.w3.org/2000/svg" xmlns:xlink="http://www.w3.org/1999/xlink" width="300" zoomAndPan="magnify" viewBox="0 0 224.87999 225" height="300" preserveAspectRatio="xMidYMid meet" version="1.0"><defs><clipPath id="85340bdf57"><path d="M 25.300781 0.0585938 L 199.957031 0.0585938 L 199.957031 224.9375 L 25.300781 224.9375 Z M 25.300781 0.0585938 " clip-rule="nonzero"/></clipPath><clipPath id="fb3d507a95"><path d="M 93.679688 199.558594 L 131.675781 199.558594 L 131.675781 206.070312 L 93.679688 206.070312 Z M 93.679688 199.558594 " clip-rule="nonzero"/></clipPath><clipPath id="9d0fea0a46"><path d="M 95.800781 201.476562 C 116.9375 201.402344 126.757812 199.230469 129.605469 199.605469 C 130.429688 199.753906 130.878906 199.902344 131.253906 200.277344 C 131.480469 200.578125 131.703125 201.027344 131.628906 201.402344 C 131.628906 201.925781 131.328125 202.75 130.878906 203.050781 C 130.355469 203.351562 129.082031 203.351562 128.632812 202.976562 C 128.105469 202.601562 127.808594 201.328125 128.03125 200.804688 C 128.179688 200.277344 128.929688 199.753906 129.382812 199.679688 C 129.753906 199.527344 130.207031 199.605469 130.582031 199.753906 C 131.03125 200.054688 131.554688 200.726562 131.628906 201.175781 C 131.703125 201.628906 131.628906 202.078125 131.40625 202.378906 C 131.179688 202.828125 130.804688 203.125 129.980469 203.425781 C 127.207031 204.402344 117.011719 205 111.015625 205.375 C 105.695312 205.675781 98.421875 206.574219 95.800781 205.601562 C 94.675781 205.152344 94 204.402344 93.773438 203.800781 C 93.625 203.351562 93.851562 202.75 94.148438 202.378906 C 94.449219 202.003906 95.800781 201.476562 95.800781 201.476562 " clip-rule="nonzero"/></clipPath></defs><g clip-path="url(#85340bdf57)"><path fill="#ffffff" d="M 180.898438 86.964844 L 180.898438 68.515625 C 180.898438 30.777344 150.183594 0.0585938 112.445312 0.0585938 C 74.707031 0.0585938 43.980469 30.769531 43.980469 68.515625 L 43.980469 86.964844 C 33.644531 87.242188 25.339844 95.664062 25.339844 106.066406 L 25.339844 205.785156 C 25.339844 206.410156 25.371094 207.035156 25.433594 207.660156 C 25.496094 208.285156 25.585938 208.90625 25.710938 209.519531 C 25.832031 210.136719 25.984375 210.742188 26.164062 211.34375 C 26.347656 211.945312 26.558594 212.535156 26.800781 213.113281 C 27.039062 213.695312 27.308594 214.261719 27.601562 214.8125 C 27.898438 215.367188 28.21875 215.902344 28.570312 216.425781 C 28.917969 216.949219 29.289062 217.449219 29.6875 217.9375 C 30.085938 218.421875 30.507812 218.886719 30.949219 219.328125 C 31.394531 219.773438 31.859375 220.191406 32.34375 220.589844 C 32.828125 220.988281 33.332031 221.363281 33.851562 221.710938 C 34.375 222.058594 34.914062 222.382812 35.464844 222.675781 C 36.019531 222.972656 36.585938 223.242188 37.164062 223.480469 C 37.746094 223.722656 38.335938 223.933594 38.933594 224.113281 C 39.535156 224.296875 40.144531 224.449219 40.757812 224.570312 C 41.375 224.695312 41.992188 224.785156 42.617188 224.847656 C 43.242188 224.910156 43.867188 224.941406 44.496094 224.941406 L 180.386719 224.941406 C 181.015625 224.941406 181.640625 224.910156 182.265625 224.847656 C 182.886719 224.785156 183.507812 224.695312 184.125 224.570312 C 184.738281 224.449219 185.347656 224.296875 185.945312 224.113281 C 186.546875 223.933594 187.136719 223.722656 187.71875 223.480469 C 188.296875 223.242188 188.863281 222.972656 189.417969 222.679688 C 189.96875 222.382812 190.507812 222.058594 191.027344 221.710938 C 191.550781 221.363281 192.054688 220.988281 192.539062 220.59375 C 193.023438 220.195312 193.488281 219.773438 193.933594 219.328125 C 194.375 218.886719 194.796875 218.421875 195.195312 217.9375 C 195.59375 217.453125 195.964844 216.949219 196.3125 216.425781 C 196.664062 215.90625 196.984375 215.367188 197.28125 214.816406 C 197.578125 214.261719 197.84375 213.695312 198.085938 213.117188 C 198.324219 212.535156 198.535156 211.945312 198.71875 211.34375 C 198.898438 210.746094 199.050781 210.136719 199.175781 209.523438 C 199.296875 208.90625 199.390625 208.285156 199.449219 207.664062 C 199.511719 207.039062 199.542969 206.414062 199.542969 205.785156 L 199.542969 106.066406 C 199.542969 95.660156 191.234375 87.242188 180.898438 86.964844 Z M 128.109375 142.144531 C 128.023438 142.738281 127.691406 144.09375 127.660156 144.195312 C 126.492188 148.25 123.699219 151.574219 120.066406 153.601562 L 126.21875 179.816406 C 126.304688 180.085938 126.363281 180.363281 126.386719 180.648438 C 126.410156 180.929688 126.402344 181.214844 126.359375 181.496094 C 126.320312 181.777344 126.246094 182.050781 126.136719 182.3125 C 126.03125 182.578125 125.898438 182.828125 125.734375 183.058594 C 125.570312 183.292969 125.378906 183.503906 125.164062 183.691406 C 124.953125 183.878906 124.71875 184.039062 124.46875 184.175781 C 124.21875 184.308594 123.953125 184.410156 123.679688 184.484375 C 123.402344 184.554688 123.121094 184.59375 122.839844 184.601562 L 102.460938 184.601562 C 102.179688 184.59375 101.898438 184.554688 101.621094 184.484375 C 101.347656 184.410156 101.082031 184.308594 100.832031 184.175781 C 100.582031 184.039062 100.347656 183.878906 100.136719 183.691406 C 99.921875 183.503906 99.730469 183.292969 99.566406 183.058594 C 99.402344 182.828125 99.269531 182.578125 99.164062 182.3125 C 99.058594 182.050781 98.984375 181.777344 98.941406 181.496094 C 98.898438 181.214844 98.890625 180.929688 98.914062 180.648438 C 98.9375 180.363281 98.996094 180.085938 99.085938 179.816406 L 104.816406 153.601562 C 101.183594 151.574219 98.390625 148.25 97.222656 144.195312 C 97.191406 144.09375 96.859375 142.738281 96.773438 142.144531 C 96.664062 141.414062 96.609375 140.675781 96.609375 139.9375 C 96.609375 139.417969 96.636719 138.902344 96.6875 138.386719 C 96.738281 137.867188 96.8125 137.355469 96.914062 136.847656 C 97.015625 136.339844 97.140625 135.835938 97.289062 135.339844 C 97.441406 134.84375 97.613281 134.355469 97.8125 133.875 C 98.011719 133.398438 98.234375 132.929688 98.476562 132.472656 C 98.722656 132.015625 98.988281 131.570312 99.277344 131.140625 C 99.5625 130.707031 99.871094 130.292969 100.203125 129.890625 C 100.53125 129.488281 100.878906 129.105469 101.246094 128.738281 C 101.613281 128.371094 101.996094 128.023438 102.394531 127.695312 C 102.796875 127.367188 103.214844 127.058594 103.644531 126.769531 C 104.074219 126.480469 104.519531 126.214844 104.976562 125.96875 C 105.433594 125.726562 105.902344 125.503906 106.382812 125.304688 C 106.859375 125.105469 107.347656 124.933594 107.84375 124.78125 C 108.339844 124.632812 108.84375 124.503906 109.351562 124.402344 C 109.859375 124.304688 110.375 124.226562 110.890625 124.175781 C 111.40625 124.125 111.921875 124.101562 112.441406 124.101562 C 112.960938 124.101562 113.476562 124.125 113.992188 124.175781 C 114.511719 124.226562 115.023438 124.304688 115.53125 124.402344 C 116.039062 124.503906 116.542969 124.632812 117.039062 124.78125 C 117.535156 124.933594 118.023438 125.105469 118.5 125.304688 C 118.980469 125.503906 119.449219 125.726562 119.90625 125.96875 C 120.363281 126.214844 120.808594 126.480469 121.238281 126.769531 C 121.671875 127.058594 122.085938 127.367188 122.488281 127.695312 C 122.886719 128.023438 123.273438 128.371094 123.636719 128.738281 C 124.003906 129.105469 124.351562 129.488281 124.679688 129.890625 C 125.011719 130.292969 125.320312 130.707031 125.605469 131.140625 C 125.894531 131.570312 126.160156 132.015625 126.40625 132.472656 C 126.648438 132.929688 126.871094 133.398438 127.070312 133.878906 C 127.269531 134.355469 127.441406 134.84375 127.59375 135.339844 C 127.742188 135.835938 127.867188 136.339844 127.96875 136.847656 C 128.070312 137.355469 128.148438 137.867188 128.195312 138.386719 C 128.246094 138.902344 128.273438 139.417969 128.273438 139.9375 C 128.273438 140.675781 128.21875 141.414062 128.109375 142.144531 Z M 157.523438 86.910156 L 67.355469 86.910156 L 67.355469 68.515625 C 67.355469 43.648438 87.574219 23.421875 112.445312 23.421875 C 137.316406 23.421875 157.523438 43.648438 157.523438 68.515625 Z M 157.523438 86.910156 " fill-opacity="1" fill-rule="nonzero"/></g><g clip-path="url(#fb3d507a95)"><g clip-path="url(#9d0fea0a46)"><path fill="#ffffff" d="M 90.777344 196.605469 L 134.722656 196.605469 L 134.722656 208.597656 L 90.777344 208.597656 Z M 90.777344 196.605469 " fill-opacity="1" fill-rule="nonzero"/></g></g></svg>